<svg height="2500" width="1500" xmlns="http://www.w3.org/2000/svg" xmlns:svg="http://www.w3.org/2000/svg" xmlns:xlink="http://www.w3.org/1999/xlink">
    <style type="text/css"><![CDATA[
	polyline { fill: none; stroke: black; stroke-width: 1 }
	path { fill: none; stroke: black; stroke-width: 1 }
	line { fill: none; stroke: black; stroke-width: 1 }
	circle.node_circle  {}
	circle.taxon_circle {}
	text.node_text      {}
	text.taxon_text     {}
	line.scale_bar      {}
	text.scale_label    {}
	line.scale_major    {}
	line.scale_minor    {}
]]></style>
    <line class="scale_bar" style="stroke: black; stroke-width: 1; stroke-linecap: butt" x1="1310" x2="40" y1="2495" y2="2495" />
    <text class="scale_label" style="font-family: Verdana; font-size: 11" transform="rotate()" x="1320" y="2495">MYA</text>
    <line class="scale_major" style="stroke: black; stroke-width: 1; stroke-linecap: butt" x1="1310" x2="1310" y1="2495" y2="2475" />
    <text class="major_label" style="font-family: Verdana; font-size: 11" transform="rotate()" x="1310" y="2465">0</text>
    <line class="scale_major" style="stroke: black; stroke-width: 1; stroke-linecap: butt" x1="1145.29492751693" x2="1145.29492751693" y1="2495" y2="2475" />
    <text class="major_label" style="font-family: Verdana; font-size: 11" transform="rotate()" x="1145.29492751693" y="2465">25</text>
    <line class="scale_major" style="stroke: black; stroke-width: 1; stroke-linecap: butt" x1="980.589855033859" x2="980.589855033859" y1="2495" y2="2475" />
    <text class="major_label" style="font-family: Verdana; font-size: 11" transform="rotate()" x="980.589855033859" y="2465">50</text>
    <line class="scale_major" style="stroke: black; stroke-width: 1; stroke-linecap: butt" x1="815.884782550787" x2="815.884782550787" y1="2495" y2="2475" />
    <text class="major_label" style="font-family: Verdana; font-size: 11" transform="rotate()" x="815.884782550787" y="2465">75</text>
    <line class="scale_major" style="stroke: black; stroke-width: 1; stroke-linecap: butt" x1="651.179710067716" x2="651.179710067716" y1="2495" y2="2475" />
    <text class="major_label" style="font-family: Verdana; font-size: 11" transform="rotate()" x="651.179710067716" y="2465">100</text>
    <line class="scale_major" style="stroke: black; stroke-width: 1; stroke-linecap: butt" x1="486.474637584645" x2="486.474637584645" y1="2495" y2="2475" />
    <text class="major_label" style="font-family: Verdana; font-size: 11" transform="rotate()" x="486.474637584645" y="2465">125</text>
    <line class="scale_major" style="stroke: black; stroke-width: 1; stroke-linecap: butt" x1="321.769565101574" x2="321.769565101574" y1="2495" y2="2475" />
    <text class="major_label" style="font-family: Verdana; font-size: 11" transform="rotate()" x="321.769565101574" y="2465">150</text>
    <line class="scale_major" style="stroke: black; stroke-width: 1; stroke-linecap: butt" x1="157.064492618503" x2="157.064492618503" y1="2495" y2="2475" />
    <text class="major_label" style="font-family: Verdana; font-size: 11" transform="rotate()" x="157.064492618503" y="2465">175</text>
    <line class="scale_minor" style="stroke: black; stroke-width: 1; stroke-linecap: butt" x1="1310" x2="1310" y1="2495" y2="2485" />
    <line class="scale_minor" style="stroke: black; stroke-width: 1; stroke-linecap: butt" x1="1277.05898550339" x2="1277.05898550339" y1="2495" y2="2485" />
    <line class="scale_minor" style="stroke: black; stroke-width: 1; stroke-linecap: butt" x1="1244.11797100677" x2="1244.11797100677" y1="2495" y2="2485" />
    <line class="scale_minor" style="stroke: black; stroke-width: 1; stroke-linecap: butt" x1="1211.17695651016" x2="1211.17695651016" y1="2495" y2="2485" />
    <line class="scale_minor" style="stroke: black; stroke-width: 1; stroke-linecap: butt" x1="1178.23594201354" x2="1178.23594201354" y1="2495" y2="2485" />
    <line class="scale_minor" style="stroke: black; stroke-width: 1; stroke-linecap: butt" x1="1145.29492751693" x2="1145.29492751693" y1="2495" y2="2485" />
    <line class="scale_minor" style="stroke: black; stroke-width: 1; stroke-linecap: butt" x1="1112.35391302032" x2="1112.35391302032" y1="2495" y2="2485" />
    <line class="scale_minor" style="stroke: black; stroke-width: 1; stroke-linecap: butt" x1="1079.4128985237" x2="1079.4128985237" y1="2495" y2="2485" />
    <line class="scale_minor" style="stroke: black; stroke-width: 1; stroke-linecap: butt" x1="1046.47188402709" x2="1046.47188402709" y1="2495" y2="2485" />
    <line class="scale_minor" style="stroke: black; stroke-width: 1; stroke-linecap: butt" x1="1013.53086953047" x2="1013.53086953047" y1="2495" y2="2485" />
    <line class="scale_minor" style="stroke: black; stroke-width: 1; stroke-linecap: butt" x1="980.589855033859" x2="980.589855033859" y1="2495" y2="2485" />
    <line class="scale_minor" style="stroke: black; stroke-width: 1; stroke-linecap: butt" x1="947.648840537244" x2="947.648840537244" y1="2495" y2="2485" />
    <line class="scale_minor" style="stroke: black; stroke-width: 1; stroke-linecap: butt" x1="914.70782604063" x2="914.70782604063" y1="2495" y2="2485" />
    <line class="scale_minor" style="stroke: black; stroke-width: 1; stroke-linecap: butt" x1="881.766811544016" x2="881.766811544016" y1="2495" y2="2485" />
    <line class="scale_minor" style="stroke: black; stroke-width: 1; stroke-linecap: butt" x1="848.825797047402" x2="848.825797047402" y1="2495" y2="2485" />
    <line class="scale_minor" style="stroke: black; stroke-width: 1; stroke-linecap: butt" x1="815.884782550787" x2="815.884782550787" y1="2495" y2="2485" />
    <line class="scale_minor" style="stroke: black; stroke-width: 1; stroke-linecap: butt" x1="782.943768054173" x2="782.943768054173" y1="2495" y2="2485" />
    <line class="scale_minor" style="stroke: black; stroke-width: 1; stroke-linecap: butt" x1="750.002753557559" x2="750.002753557559" y1="2495" y2="2485" />
    <line class="scale_minor" style="stroke: black; stroke-width: 1; stroke-linecap: butt" x1="717.061739060945" x2="717.061739060945" y1="2495" y2="2485" />
    <line class="scale_minor" style="stroke: black; stroke-width: 1; stroke-linecap: butt" x1="684.120724564331" x2="684.120724564331" y1="2495" y2="2485" />
    <line class="scale_minor" style="stroke: black; stroke-width: 1; stroke-linecap: butt" x1="651.179710067716" x2="651.179710067716" y1="2495" y2="2485" />
    <line class="scale_minor" style="stroke: black; stroke-width: 1; stroke-linecap: butt" x1="618.238695571102" x2="618.238695571102" y1="2495" y2="2485" />
    <line class="scale_minor" style="stroke: black; stroke-width: 1; stroke-linecap: butt" x1="585.297681074488" x2="585.297681074488" y1="2495" y2="2485" />
    <line class="scale_minor" style="stroke: black; stroke-width: 1; stroke-linecap: butt" x1="552.356666577874" x2="552.356666577874" y1="2495" y2="2485" />
    <line class="scale_minor" style="stroke: black; stroke-width: 1; stroke-linecap: butt" x1="519.415652081259" x2="519.415652081259" y1="2495" y2="2485" />
    <line class="scale_minor" style="stroke: black; stroke-width: 1; stroke-linecap: butt" x1="486.474637584645" x2="486.474637584645" y1="2495" y2="2485" />
    <line class="scale_minor" style="stroke: black; stroke-width: 1; stroke-linecap: butt" x1="453.533623088031" x2="453.533623088031" y1="2495" y2="2485" />
    <line class="scale_minor" style="stroke: black; stroke-width: 1; stroke-linecap: butt" x1="420.592608591417" x2="420.592608591417" y1="2495" y2="2485" />
    <line class="scale_minor" style="stroke: black; stroke-width: 1; stroke-linecap: butt" x1="387.651594094802" x2="387.651594094802" y1="2495" y2="2485" />
    <line class="scale_minor" style="stroke: black; stroke-width: 1; stroke-linecap: butt" x1="354.710579598188" x2="354.710579598188" y1="2495" y2="2485" />
    <line class="scale_minor" style="stroke: black; stroke-width: 1; stroke-linecap: butt" x1="321.769565101574" x2="321.769565101574" y1="2495" y2="2485" />
    <line class="scale_minor" style="stroke: black; stroke-width: 1; stroke-linecap: butt" x1="288.82855060496" x2="288.82855060496" y1="2495" y2="2485" />
    <line class="scale_minor" style="stroke: black; stroke-width: 1; stroke-linecap: butt" x1="255.887536108346" x2="255.887536108346" y1="2495" y2="2485" />
    <line class="scale_minor" style="stroke: black; stroke-width: 1; stroke-linecap: butt" x1="222.946521611731" x2="222.946521611731" y1="2495" y2="2485" />
    <line class="scale_minor" style="stroke: black; stroke-width: 1; stroke-linecap: butt" x1="190.005507115117" x2="190.005507115117" y1="2495" y2="2485" />
    <line class="scale_minor" style="stroke: black; stroke-width: 1; stroke-linecap: butt" x1="157.064492618503" x2="157.064492618503" y1="2495" y2="2485" />
    <line class="scale_minor" style="stroke: black; stroke-width: 1; stroke-linecap: butt" x1="124.123478121889" x2="124.123478121889" y1="2495" y2="2485" />
    <line class="scale_minor" style="stroke: black; stroke-width: 1; stroke-linecap: butt" x1="91.1824636252744" x2="91.1824636252744" y1="2495" y2="2485" />
    <line class="scale_minor" style="stroke: black; stroke-width: 1; stroke-linecap: butt" x1="58.2414491286602" x2="58.2414491286602" y1="2495" y2="2485" />
    <path d="M1096,83 C1096,97 1309,97 1309,97" style="stroke: #628200; stroke-width: 1" />
    <text class="taxon_text" style="font-family: Verdana; font-size: 11; font-style: Italic" transform="rotate( 1309.9999934118 97.6190476190476)" x="1319" y="101">Aphantopus hyperantus</text>
    <path d="M1096,83 C1096,68 1120,68 1120,68" style="stroke: #628200; stroke-width: 1" />
    <polygon class="collapsed" id="collapsed431" points="1120,68 1309,76 1309,61 1120,68 " style="fill: white; stroke: #628200; stroke-width: 1" />
    <text class="collapsed_text" id="collapsed_text431" style="font-family: Verdana; font-size: 11; font-weight: bold" transform="rotate()" x="1319" y="72">Pyronia (n=2)</text>
    <path d="M1062,104 C1062,126 1309,126 1309,126" style="stroke: #628200; stroke-width: 1" />
    <text class="taxon_text" style="font-family: Verdana; font-size: 11; font-style: Italic" transform="rotate( 1309.9999934118 126.428571428571)" x="1319" y="130">Maniola jurtina</text>
    <path d="M1062,104 C1062,83 1096,83 1096,83" style="stroke: #628200; stroke-width: 1" />
    <path d="M1006,72 C1006,104 1062,104 1062,104" style="stroke: #628200; stroke-width: 1" />
    <path d="M1006,72 C1006,40 1085,40 1085,40" style="stroke: #628200; stroke-width: 1" />
    <polygon class="collapsed" id="collapsed374" points="1085,40 1309,47 1309,32 1085,40 " style="fill: white; stroke: #628200; stroke-width: 1" />
    <text class="collapsed_text" id="collapsed_text374" style="font-family: Verdana; font-size: 11; font-weight: bold" transform="rotate()" x="1319" y="44">Erebia (n=29)</text>
    <path d="M1115,198 C1115,212 1309,212 1309,212" style="stroke: #628200; stroke-width: 1" />
    <text class="taxon_text" style="font-family: Verdana; font-size: 11; font-style: Italic" transform="rotate( 1309.9999934118 212.857142857143)" x="1319" y="216">Arethusana arethusa</text>
    <path d="M1115,198 C1115,184 1309,184 1309,184" style="stroke: #628200; stroke-width: 1" />
    <text class="taxon_text" style="font-family: Verdana; font-size: 11; font-style: Italic" transform="rotate( 1309.9999934118 184.047619047619)" x="1319" y="188">Melanargia galathea</text>
    <path d="M1073,176 C1073,198 1115,198 1115,198" style="stroke: #628200; stroke-width: 1" />
    <path d="M1073,176 C1073,155 1100,155 1100,155" style="stroke: #628200; stroke-width: 1" />
    <polygon class="collapsed" id="collapsed355" points="1100,155 1309,162 1309,148 1100,155 " style="fill: white; stroke: #628200; stroke-width: 1" />
    <text class="collapsed_text" id="collapsed_text355" style="font-family: Verdana; font-size: 11; font-weight: bold" transform="rotate()" x="1319" y="159">Hipparchia (n=7)</text>
    <path d="M1098,256 C1098,270 1309,270 1309,270" style="stroke: #628200; stroke-width: 1" />
    <text class="taxon_text" style="font-family: Verdana; font-size: 11; font-style: Italic" transform="rotate( 1309.9999934118 270.47619047619)" x="1319" y="274">Brintesia circe</text>
    <path d="M1098,256 C1098,241 1309,241 1309,241" style="stroke: #628200; stroke-width: 1" />
    <text class="taxon_text" style="font-family: Verdana; font-size: 11; font-style: Italic" transform="rotate( 1309.9999934118 241.666666666667)" x="1319" y="245">Chazara briseis</text>
    <path d="M1060,216 C1060,256 1098,256 1098,256" style="stroke: #628200; stroke-width: 1" />
    <path d="M1060,216 C1060,176 1073,176 1073,176" style="stroke: #628200; stroke-width: 1" />
    <path d="M1050,257 C1050,299 1309,299 1309,299" style="stroke: #628200; stroke-width: 1" />
    <text class="taxon_text" style="font-family: Verdana; font-size: 11; font-style: Italic" transform="rotate( 1309.9999934118 299.285714285714)" x="1319" y="303">Minois dryas</text>
    <path d="M1050,257 C1050,216 1060,216 1060,216" style="stroke: #628200; stroke-width: 1" />
    <path d="M1034,292 C1034,328 1162,328 1162,328" style="stroke: #628200; stroke-width: 1" />
    <polygon class="collapsed" id="collapsed367" points="1162,328 1309,335 1309,320 1162,328 " style="fill: white; stroke: #628200; stroke-width: 1" />
    <text class="collapsed_text" id="collapsed_text367" style="font-family: Verdana; font-size: 11; font-weight: bold" transform="rotate()" x="1319" y="332">Oeneis (n=4)</text>
    <path d="M1034,292 C1034,257 1050,257 1050,257" style="stroke: #628200; stroke-width: 1" />
    <path d="M972,182 C972,292 1034,292 1034,292" style="stroke: #628200; stroke-width: 1" />
    <path d="M972,182 C972,72 1006,72 1006,72" style="stroke: #628200; stroke-width: 1" />
    <path d="M999,371 C999,385 1309,385 1309,385" style="stroke: #628200; stroke-width: 1" />
    <text class="taxon_text" style="font-family: Verdana; font-size: 11; font-style: Italic" transform="rotate( 1309.9999934118 385.714285714286)" x="1319" y="389">Hyponephele lycaon</text>
    <path d="M999,371 C999,356 1109,356 1109,356" style="stroke: #628200; stroke-width: 1" />
    <polygon class="collapsed" id="collapsed327" points="1109,356 1309,364 1309,349 1109,356 " style="fill: white; stroke: #628200; stroke-width: 1" />
    <text class="collapsed_text" id="collapsed_text327" style="font-family: Verdana; font-size: 11; font-weight: bold" transform="rotate()" x="1319" y="360">Coenonympha (n=9)</text>
    <path d="M963,277 C963,371 999,371 999,371" style="stroke: #628200; stroke-width: 1" />
    <path d="M963,277 C963,182 972,182 972,182" style="stroke: #628200; stroke-width: 1" />
    <path d="M1058,428 C1058,443 1309,443 1309,443" style="stroke: #628200; stroke-width: 1" />
    <text class="taxon_text" style="font-family: Verdana; font-size: 11; font-style: Italic" transform="rotate( 1310 443.333333333333)" x="1319" y="447">Kirinia roxelana</text>
    <path d="M1058,428 C1058,414 1309,414 1309,414" style="stroke: #628200; stroke-width: 1" />
    <text class="taxon_text" style="font-family: Verdana; font-size: 11; font-style: Italic" transform="rotate( 1310 414.52380952381)" x="1319" y="418">Lopinga achine</text>
    <path d="M1014,450 C1014,472 1310,472 1310,472" style="stroke: #628200; stroke-width: 1" />
    <text class="taxon_text" style="font-family: Verdana; font-size: 11; font-style: Italic" transform="rotate( 1310 472.142857142857)" x="1320" y="476">Pararge aegeria</text>
    <path d="M1014,450 C1014,428 1058,428 1058,428" style="stroke: #628200; stroke-width: 1" />
    <path d="M990,475 C990,500 1118,500 1118,500" style="stroke: #628200; stroke-width: 1" />
    <polygon class="collapsed" id="collapsed320" points="1118,500 1310,508 1310,493 1118,500 " style="fill: white; stroke: #628200; stroke-width: 1" />
    <text class="collapsed_text" id="collapsed_text320" style="font-family: Verdana; font-size: 11; font-weight: bold" transform="rotate()" x="1320" y="504">Lasiommata (n=3)</text>
    <path d="M990,475 C990,450 1014,450 1014,450" style="stroke: #628200; stroke-width: 1" />
    <path d="M923,376 C923,475 990,475 990,475" style="stroke: #628200; stroke-width: 1" />
    <path d="M923,376 C923,277 963,277 963,277" style="stroke: #628200; stroke-width: 1" />
    <path d="M1114,572 C1114,587 1310,587 1310,587" style="stroke: #628200; stroke-width: 1" />
    <text class="taxon_text" style="font-family: Verdana; font-size: 11; font-style: Italic" transform="rotate( 1310 587.380952380952)" x="1320" y="591">Issoria lathonia</text>
    <path d="M1114,572 C1114,558 1194,558 1194,558" style="stroke: #628200; stroke-width: 1" />
    <polygon class="collapsed" id="collapsed470" points="1194,558 1309,565 1309,551 1194,558 " style="fill: white; stroke: #628200; stroke-width: 1" />
    <text class="collapsed_text" id="collapsed_text470" style="font-family: Verdana; font-size: 11; font-weight: bold" transform="rotate()" x="1319" y="562">Brenthis (n=3)</text>
    <path d="M1070,551 C1070,572 1114,572 1114,572" style="stroke: #628200; stroke-width: 1" />
    <path d="M1070,551 C1070,529 1120,529 1120,529" style="stroke: #628200; stroke-width: 1" />
    <polygon class="collapsed" id="collapsed458" points="1120,529 1310,536 1310,522 1120,529 " style="fill: white; stroke: #628200; stroke-width: 1" />
    <text class="collapsed_text" id="collapsed_text458" style="font-family: Verdana; font-size: 11; font-weight: bold" transform="rotate()" x="1320" y="533">Argynnis (n=6)</text>
    <path d="M1016,583 C1016,616 1069,616 1069,616" style="stroke: #628200; stroke-width: 1" />
    <polygon class="collapsed" id="collapsed476" points="1069,616 1309,623 1309,608 1069,616 " style="fill: white; stroke: #628200; stroke-width: 1" />
    <text class="collapsed_text" id="collapsed_text476" style="font-family: Verdana; font-size: 11; font-weight: bold" transform="rotate()" x="1319" y="620">Boloria (n=5)</text>
    <path d="M1016,583 C1016,551 1070,551 1070,551" style="stroke: #628200; stroke-width: 1" />
    <path d="M956,614 C956,645 1054,645 1054,645" style="stroke: #628200; stroke-width: 1" />
    <polygon class="collapsed" id="collapsed437" points="1054,645 1309,652 1309,637 1054,645 " style="fill: white; stroke: #628200; stroke-width: 1" />
    <text class="collapsed_text" id="collapsed_text437" style="font-family: Verdana; font-size: 11; font-weight: bold" transform="rotate()" x="1319" y="649">Boloria (n=10)</text>
    <path d="M956,614 C956,583 1016,583 1016,583" style="stroke: #628200; stroke-width: 1" />
    <path d="M789,495 C789,614 956,614 956,614" style="stroke: #628200; stroke-width: 1" />
    <path d="M789,495 C789,376 923,376 923,376" style="stroke: #628200; stroke-width: 1" />
    <path d="M1015,688 C1015,702 1121,702 1121,702" style="stroke: #628200; stroke-width: 1" />
    <polygon class="collapsed" id="collapsed278" points="1121,702 1310,709 1310,695 1121,702 " style="fill: white; stroke: #628200; stroke-width: 1" />
    <text class="collapsed_text" id="collapsed_text278" style="font-family: Verdana; font-size: 11; font-weight: bold" transform="rotate()" x="1320" y="706">Euphydryas (n=4)</text>
    <path d="M1015,688 C1015,673 1126,673 1126,673" style="stroke: #628200; stroke-width: 1" />
    <polygon class="collapsed" id="collapsed285" points="1126,673 1310,681 1310,666 1126,673 " style="fill: white; stroke: #628200; stroke-width: 1" />
    <text class="collapsed_text" id="collapsed_text285" style="font-family: Verdana; font-size: 11; font-weight: bold" transform="rotate()" x="1320" y="677">Melitaea (n=11)</text>
    <path d="M944,709 C944,731 1310,731 1310,731" style="stroke: #628200; stroke-width: 1" />
    <text class="taxon_text" style="font-family: Verdana; font-size: 11; font-style: Italic" transform="rotate( 1310 731.428571428571)" x="1320" y="735">Libythea celtis</text>
    <path d="M944,709 C944,688 1015,688 1015,688" style="stroke: #628200; stroke-width: 1" />
    <path d="M1129,774 C1129,789 1309,789 1309,789" style="stroke: #628200; stroke-width: 1" />
    <text class="taxon_text" style="font-family: Verdana; font-size: 11; font-style: Italic" transform="rotate( 1309.9999934118 789.047619047619)" x="1319" y="793">Polygonia egea</text>
    <path d="M1129,774 C1129,760 1163,760 1163,760" style="stroke: #628200; stroke-width: 1" />
    <polygon class="collapsed" id="collapsed262" points="1163,760 1309,767 1309,753 1163,760 " style="fill: white; stroke: #628200; stroke-width: 1" />
    <text class="collapsed_text" id="collapsed_text262" style="font-family: Verdana; font-size: 11; font-weight: bold" transform="rotate()" x="1319" y="764">Nymphalis (n=4)</text>
    <path d="M1089,796 C1089,817 1310,817 1310,817" style="stroke: #628200; stroke-width: 1" />
    <text class="taxon_text" style="font-family: Verdana; font-size: 11; font-style: Italic" transform="rotate( 1310 817.857142857143)" x="1320" y="821">Aglais io</text>
    <path d="M1089,796 C1089,774 1129,774 1129,774" style="stroke: #628200; stroke-width: 1" />
    <path d="M1069,821 C1069,846 1310,846 1310,846" style="stroke: #628200; stroke-width: 1" />
    <text class="taxon_text" style="font-family: Verdana; font-size: 11; font-style: Italic" transform="rotate( 1310 846.666666666667)" x="1320" y="850">Aglais urticae</text>
    <path d="M1069,821 C1069,796 1089,796 1089,796" style="stroke: #628200; stroke-width: 1" />
    <path d="M1012,848 C1012,875 1141,875 1141,875" style="stroke: #628200; stroke-width: 1" />
    <polygon class="collapsed" id="collapsed272" points="1141,875 1310,882 1310,868 1141,875 " style="fill: white; stroke: #628200; stroke-width: 1" />
    <text class="collapsed_text" id="collapsed_text272" style="font-family: Verdana; font-size: 11; font-weight: bold" transform="rotate()" x="1320" y="879">Vanessa (n=2)</text>
    <path d="M1012,848 C1012,821 1069,821 1069,821" style="stroke: #628200; stroke-width: 1" />
    <path d="M966,876 C966,904 1309,904 1309,904" style="stroke: #628200; stroke-width: 1" />
    <text class="taxon_text" style="font-family: Verdana; font-size: 11; font-style: Italic" transform="rotate( 1309.9999934118 904.285714285714)" x="1319" y="908">Araschnia levana</text>
    <path d="M966,876 C966,848 1012,848 1012,848" style="stroke: #628200; stroke-width: 1" />
    <path d="M880,793 C880,876 966,876 966,876" style="stroke: #628200; stroke-width: 1" />
    <path d="M880,793 C880,709 944,709 944,709" style="stroke: #628200; stroke-width: 1" />
    <path d="M841,863 C841,933 1091,933 1091,933" style="stroke: #628200; stroke-width: 1" />
    <polygon class="collapsed" id="collapsed307" points="1091,933 1309,940 1309,925 1091,933 " style="fill: white; stroke: #628200; stroke-width: 1" />
    <text class="collapsed_text" id="collapsed_text307" style="font-family: Verdana; font-size: 11; font-weight: bold" transform="rotate()" x="1319" y="937">Apatura (n=3)</text>
    <path d="M841,863 C841,793 880,793 880,793" style="stroke: #628200; stroke-width: 1" />
    <path d="M771,679 C771,863 841,863 841,863" style="stroke: #628200; stroke-width: 1" />
    <path d="M771,679 C771,495 789,495 789,495" style="stroke: #628200; stroke-width: 1" />
    <path d="M736,820 C736,961 991,961 991,961" style="stroke: #628200; stroke-width: 1" />
    <polygon class="collapsed" id="collapsed485" points="991,961 1310,969 1310,954 991,961 " style="fill: white; stroke: #628200; stroke-width: 1" />
    <text class="collapsed_text" id="collapsed_text485" style="font-family: Verdana; font-size: 11; font-weight: bold" transform="rotate()" x="1320" y="965">Limenitis (n=3)</text>
    <path d="M736,820 C736,679 771,679 771,679" style="stroke: #628200; stroke-width: 1" />
    <path d="M685,905 C685,990 1007,990 1007,990" style="stroke: #628200; stroke-width: 1" />
    <polygon class="collapsed" id="collapsed250" points="1007,990 1309,997 1309,983 1007,990 " style="fill: white; stroke: #628200; stroke-width: 1" />
    <text class="collapsed_text" id="collapsed_text250" style="font-family: Verdana; font-size: 11; font-weight: bold" transform="rotate()" x="1319" y="994">Neptis (n=2)</text>
    <path d="M685,905 C685,820 736,820 736,820" style="stroke: #628200; stroke-width: 1" />
    <path d="M939,1033 C939,1048 1023,1048 1023,1048" style="stroke: #8B0000; stroke-width: 1" />
    <polygon class="collapsed" id="collapsed530" points="1023,1048 1309,1055 1309,1041 1023,1048 " style="fill: white; stroke: #8B0000; stroke-width: 1" />
    <text class="collapsed_text" id="collapsed_text530" style="font-family: Verdana; font-size: 11; font-weight: bold" transform="rotate()" x="1319" y="1052">Pontia (n=2)</text>
    <path d="M939,1033 C939,1019 997,1019 997,1019" style="stroke: #8B0000; stroke-width: 1" />
    <polygon class="collapsed" id="collapsed522" points="997,1019 1309,1026 1309,1012 997,1019 " style="fill: white; stroke: #8B0000; stroke-width: 1" />
    <text class="collapsed_text" id="collapsed_text522" style="font-family: Verdana; font-size: 11; font-weight: bold" transform="rotate()" x="1319" y="1023">Pieris (n=5)</text>
    <path d="M887,1055 C887,1077 1309,1077 1309,1077" style="stroke: #8B0000; stroke-width: 1" />
    <text class="taxon_text" style="font-family: Verdana; font-size: 11; font-style: Italic" transform="rotate( 1309.9999934118 1077.14285714286)" x="1319" y="1081">Pieris brassicae</text>
    <path d="M887,1055 C887,1033 939,1033 939,1033" style="stroke: #8B0000; stroke-width: 1" />
    <path d="M1092,1120 C1092,1134 1309,1134 1309,1134" style="stroke: #8B0000; stroke-width: 1" />
    <text class="taxon_text" style="font-family: Verdana; font-size: 11; font-style: Italic" transform="rotate( 1309.9999934118 1134.7619047619)" x="1319" y="1138">Anthocharis cardamines</text>
    <path d="M1092,1120 C1092,1105 1256,1105 1256,1105" style="stroke: #8B0000; stroke-width: 1" />
    <polygon class="collapsed" id="collapsed514" points="1256,1105 1309,1113 1309,1098 1256,1105 " style="fill: white; stroke: #8B0000; stroke-width: 1" />
    <text class="collapsed_text" id="collapsed_text514" style="font-family: Verdana; font-size: 11; font-weight: bold" transform="rotate()" x="1319" y="1109">Euchloe (n=2)</text>
    <path d="M1045,1141 C1045,1163 1309,1163 1309,1163" style="stroke: #8B0000; stroke-width: 1" />
    <text class="taxon_text" style="font-family: Verdana; font-size: 11; font-style: Italic" transform="rotate( 1309.9999934118 1163.57142857143)" x="1319" y="1167">Euchloe tagis</text>
    <path d="M1045,1141 C1045,1120 1092,1120 1092,1120" style="stroke: #8B0000; stroke-width: 1" />
    <path d="M1002,1167 C1002,1192 1309,1192 1309,1192" style="stroke: #8B0000; stroke-width: 1" />
    <text class="taxon_text" style="font-family: Verdana; font-size: 11; font-style: Italic" transform="rotate( 1309.9999934118 1192.38095238095)" x="1319" y="1196">Zegris eupheme</text>
    <path d="M1002,1167 C1002,1141 1045,1141 1045,1141" style="stroke: #8B0000; stroke-width: 1" />
    <path d="M853,1194 C853,1221 1214,1221 1214,1221" style="stroke: #8B0000; stroke-width: 1" />
    <polygon class="collapsed" id="collapsed508" points="1214,1221 1309,1228 1309,1213 1214,1221 " style="fill: white; stroke: #8B0000; stroke-width: 1" />
    <text class="collapsed_text" id="collapsed_text508" style="font-family: Verdana; font-size: 11; font-weight: bold" transform="rotate()" x="1319" y="1225">Gonepteryx (n=2)</text>
    <path d="M853,1194 C853,1167 1002,1167 1002,1167" style="stroke: #8B0000; stroke-width: 1" />
    <path d="M768,1124 C768,1194 853,1194 853,1194" style="stroke: #8B0000; stroke-width: 1" />
    <path d="M768,1124 C768,1055 887,1055 887,1055" style="stroke: #8B0000; stroke-width: 1" />
    <path d="M897,1264 C897,1278 1309,1278 1309,1278" style="stroke: #8B0000; stroke-width: 1" />
    <text class="taxon_text" style="font-family: Verdana; font-size: 11; font-style: Italic" transform="rotate( 1309.9999934118 1278.80952380952)" x="1319" y="1282">Aporia crataegi</text>
    <path d="M897,1264 C897,1250 1131,1250 1131,1250" style="stroke: #8B0000; stroke-width: 1" />
    <polygon class="collapsed" id="collapsed495" points="1131,1250 1309,1257 1309,1242 1131,1250 " style="fill: white; stroke: #8B0000; stroke-width: 1" />
    <text class="collapsed_text" id="collapsed_text495" style="font-family: Verdana; font-size: 11; font-weight: bold" transform="rotate()" x="1319" y="1254">Colias (n=9)</text>
    <path d="M796,1286 C796,1307 1202,1307 1202,1307" style="stroke: #8B0000; stroke-width: 1" />
    <polygon class="collapsed" id="collapsed491" points="1202,1307 1309,1314 1309,1300 1202,1307 " style="fill: white; stroke: #8B0000; stroke-width: 1" />
    <text class="collapsed_text" id="collapsed_text491" style="font-family: Verdana; font-size: 11; font-weight: bold" transform="rotate()" x="1319" y="1311">Leptidea (n=2)</text>
    <path d="M796,1286 C796,1264 897,1264 897,1264" style="stroke: #8B0000; stroke-width: 1" />
    <path d="M673,1105 C673,1286 796,1286 796,1286" style="stroke: #8B0000; stroke-width: 1" />
    <path d="M673,1105 C673,1124 768,1124 768,1124" style="stroke: #8B0000; stroke-width: 1" />
    <path d="M673,1105 C673,905 685,905 685,905" style="stroke: #8B0000; stroke-width: 1" />
    <path d="M1279,1350 C1279,1365 1309,1365 1309,1365" style="stroke: #00B843; stroke-width: 1" />
    <text class="taxon_text" style="font-family: Verdana; font-size: 11; font-style: Italic" transform="rotate( 1309.9999934118 1365.2380952381)" x="1319" y="1369">Agriades aquilo</text>
    <path d="M1279,1350 C1279,1336 1309,1336 1309,1336" style="stroke: #00B843; stroke-width: 1" />
    <text class="taxon_text" style="font-family: Verdana; font-size: 11; font-style: Italic" transform="rotate( 1309.9999934118 1336.42857142857)" x="1319" y="1340">Plebejus glandon</text>
    <path d="M1200,1372 C1200,1394 1309,1394 1309,1394" style="stroke: #00B843; stroke-width: 1" />
    <text class="taxon_text" style="font-family: Verdana; font-size: 11; font-style: Italic" transform="rotate( 1310 1394.04761904762)" x="1319" y="1398">Plebejus optilete</text>
    <path d="M1200,1372 C1200,1350 1279,1350 1279,1350" style="stroke: #00B843; stroke-width: 1" />
    <path d="M1164,1415 C1164,1451 1309,1451 1309,1451" style="stroke: #00B843; stroke-width: 1" />
    <text class="taxon_text" style="font-family: Verdana; font-size: 11; font-style: Italic" transform="rotate( 1309.9999934118 1451.66666666667)" x="1319" y="1455">Cyaniris semiargus</text>
    <path d="M1164,1415 C1164,1422 1309,1422 1309,1422" style="stroke: #00B843; stroke-width: 1" />
    <text class="taxon_text" style="font-family: Verdana; font-size: 11; font-style: Italic" transform="rotate( 1309.9999934118 1422.85714285714)" x="1319" y="1426">Plebejus orbitulus</text>
    <path d="M1164,1415 C1164,1372 1200,1372 1200,1372" style="stroke: #00B843; stroke-width: 1" />
    <path d="M1127,1448 C1127,1480 1226,1480 1226,1480" style="stroke: #00B843; stroke-width: 1" />
    <polygon class="collapsed" id="collapsed592" points="1226,1480 1309,1487 1309,1473 1226,1480 " style="fill: white; stroke: #00B843; stroke-width: 1" />
    <text class="collapsed_text" id="collapsed_text592" style="font-family: Verdana; font-size: 11; font-weight: bold" transform="rotate()" x="1319" y="1484">Aricia (n=3)</text>
    <path d="M1127,1448 C1127,1415 1164,1415 1164,1415" style="stroke: #00B843; stroke-width: 1" />
    <path d="M1119,1478 C1119,1509 1169,1509 1169,1509" style="stroke: #00B843; stroke-width: 1" />
    <polygon class="collapsed" id="collapsed605" points="1169,1509 1309,1516 1309,1502 1169,1509 " style="fill: white; stroke: #00B843; stroke-width: 1" />
    <text class="collapsed_text" id="collapsed_text605" style="font-family: Verdana; font-size: 11; font-weight: bold" transform="rotate()" x="1319" y="1513">Polyommatus (n=8)</text>
    <path d="M1119,1478 C1119,1448 1127,1448 1127,1448" style="stroke: #00B843; stroke-width: 1" />
    <path d="M1104,1508 C1104,1538 1192,1538 1192,1538" style="stroke: #00B843; stroke-width: 1" />
    <polygon class="collapsed" id="collapsed585" points="1192,1538 1310,1545 1310,1530 1192,1538 " style="fill: white; stroke: #00B843; stroke-width: 1" />
    <text class="collapsed_text" id="collapsed_text585" style="font-family: Verdana; font-size: 11; font-weight: bold" transform="rotate()" x="1320" y="1542">Plebejus (n=3)</text>
    <path d="M1104,1508 C1104,1478 1119,1478 1119,1478" style="stroke: #00B843; stroke-width: 1" />
    <path d="M1027,1537 C1027,1566 1309,1566 1309,1566" style="stroke: #00B843; stroke-width: 1" />
    <text class="taxon_text" style="font-family: Verdana; font-size: 11; font-style: Italic" transform="rotate( 1309.9999934118 1566.90476190476)" x="1319" y="1570">Celastrina argiolus</text>
    <path d="M1027,1537 C1027,1508 1104,1508 1104,1508" style="stroke: #00B843; stroke-width: 1" />
    <path d="M1122,1610 C1122,1624 1309,1624 1309,1624" style="stroke: #00B843; stroke-width: 1" />
    <text class="taxon_text" style="font-family: Verdana; font-size: 11; font-style: Italic" transform="rotate( 1309.9999934118 1624.52380952381)" x="1319" y="1628">Scolitantides orion</text>
    <path d="M1122,1610 C1122,1595 1173,1595 1173,1595" style="stroke: #00B843; stroke-width: 1" />
    <polygon class="collapsed" id="collapsed569" points="1173,1595 1309,1602 1309,1588 1173,1595 " style="fill: white; stroke: #00B843; stroke-width: 1" />
    <text class="collapsed_text" id="collapsed_text569" style="font-family: Verdana; font-size: 11; font-weight: bold" transform="rotate()" x="1319" y="1599">Pseudophilotes (n=3)</text>
    <path d="M1102,1631 C1102,1653 1309,1653 1309,1653" style="stroke: #00B843; stroke-width: 1" />
    <text class="taxon_text" style="font-family: Verdana; font-size: 11; font-style: Italic" transform="rotate( 1309.9999934118 1653.33333333333)" x="1319" y="1657">Glaucopsyche alexis</text>
    <path d="M1102,1631 C1102,1610 1122,1610 1122,1610" style="stroke: #00B843; stroke-width: 1" />
    <path d="M1038,1656 C1038,1682 1175,1682 1175,1682" style="stroke: #00B843; stroke-width: 1" />
    <polygon class="collapsed" id="collapsed576" points="1175,1682 1310,1689 1310,1674 1175,1682 " style="fill: white; stroke: #00B843; stroke-width: 1" />
    <text class="collapsed_text" id="collapsed_text576" style="font-family: Verdana; font-size: 11; font-weight: bold" transform="rotate()" x="1320" y="1686">Phengaris (n=4)</text>
    <path d="M1038,1656 C1038,1631 1102,1631 1102,1631" style="stroke: #00B843; stroke-width: 1" />
    <path d="M988,1597 C988,1656 1038,1656 1038,1656" style="stroke: #00B843; stroke-width: 1" />
    <path d="M988,1597 C988,1537 1027,1537 1027,1537" style="stroke: #00B843; stroke-width: 1" />
    <path d="M953,1654 C953,1710 1309,1710 1309,1710" style="stroke: #00B843; stroke-width: 1" />
    <text class="taxon_text" style="font-family: Verdana; font-size: 11; font-style: Italic" transform="rotate( 1309.9999934118 1710.95238095238)" x="1319" y="1714">Lampides boeticus</text>
    <path d="M953,1654 C953,1597 988,1597 988,1597" style="stroke: #00B843; stroke-width: 1" />
    <path d="M945,1754 C945,1768 1310,1768 1310,1768" style="stroke: #00B843; stroke-width: 1" />
    <text class="taxon_text" style="font-family: Verdana; font-size: 11; font-style: Italic" transform="rotate( 1310 1768.57142857143)" x="1320" y="1772">Cacyreus marshalli</text>
    <path d="M945,1754 C945,1739 1110,1739 1110,1739" style="stroke: #00B843; stroke-width: 1" />
    <polygon class="collapsed" id="collapsed555" points="1110,1739 1309,1746 1309,1732 1110,1739 " style="fill: white; stroke: #00B843; stroke-width: 1" />
    <text class="collapsed_text" id="collapsed_text555" style="font-family: Verdana; font-size: 11; font-weight: bold" transform="rotate()" x="1319" y="1743">Cupido (n=5)</text>
    <path d="M891,1704 C891,1754 945,1754 945,1754" style="stroke: #00B843; stroke-width: 1" />
    <path d="M891,1704 C891,1654 953,1654 953,1654" style="stroke: #00B843; stroke-width: 1" />
    <path d="M1040,1840 C1040,1855 1309,1855 1309,1855" style="stroke: #00B843; stroke-width: 1" />
    <text class="taxon_text" style="font-family: Verdana; font-size: 11; font-style: Italic" transform="rotate( 1309.9999934118 1855)" x="1319" y="1859">Favonius quercus</text>
    <path d="M1040,1840 C1040,1826 1309,1826 1309,1826" style="stroke: #00B843; stroke-width: 1" />
    <text class="taxon_text" style="font-family: Verdana; font-size: 11; font-style: Italic" transform="rotate( 1309.9999934118 1826.19047619048)" x="1319" y="1830">Thecla betulae</text>
    <path d="M970,1818 C970,1840 1040,1840 1040,1840" style="stroke: #00B843; stroke-width: 1" />
    <path d="M970,1818 C970,1797 1089,1797 1089,1797" style="stroke: #00B843; stroke-width: 1" />
    <polygon class="collapsed" id="collapsed623" points="1089,1797 1309,1804 1309,1790 1089,1797 " style="fill: white; stroke: #00B843; stroke-width: 1" />
    <text class="collapsed_text" id="collapsed_text623" style="font-family: Verdana; font-size: 11; font-weight: bold" transform="rotate()" x="1319" y="1801">Satyrium (n=4)</text>
    <path d="M943,1851 C943,1883 1309,1883 1309,1883" style="stroke: #00B843; stroke-width: 1" />
    <text class="taxon_text" style="font-family: Verdana; font-size: 11; font-style: Italic" transform="rotate( 1309.9999934118 1883.80952380952)" x="1319" y="1887">Callophrys rubi</text>
    <path d="M943,1851 C943,1818 970,1818 970,1818" style="stroke: #00B843; stroke-width: 1" />
    <path d="M863,1777 C863,1851 943,1851 943,1851" style="stroke: #00B843; stroke-width: 1" />
    <path d="M863,1777 C863,1704 891,1704 891,1704" style="stroke: #00B843; stroke-width: 1" />
    <path d="M875,1927 C875,1941 1309,1941 1309,1941" style="stroke: #00B843; stroke-width: 1" />
    <text class="taxon_text" style="font-family: Verdana; font-size: 11; font-style: Italic" transform="rotate( 1310 1941.42857142857)" x="1319" y="1945">Leptotes pirithous</text>
    <path d="M875,1927 C875,1912 1113,1912 1113,1912" style="stroke: #00B843; stroke-width: 1" />
    <polygon class="collapsed" id="collapsed536" points="1113,1912 1310,1919 1310,1905 1113,1912 " style="fill: white; stroke: #00B843; stroke-width: 1" />
    <text class="collapsed_text" id="collapsed_text536" style="font-family: Verdana; font-size: 11; font-weight: bold" transform="rotate()" x="1320" y="1916">Lycaena (n=8)</text>
    <path d="M847,1852 C847,1927 875,1927 875,1927" style="stroke: #00B843; stroke-width: 1" />
    <path d="M847,1852 C847,1777 863,1777 863,1777" style="stroke: #00B843; stroke-width: 1" />
    <path d="M660,1478 C660,1852 847,1852 847,1852" style="stroke: black; stroke-width: 1" />
    <path d="M660,1478 C660,1105 673,1105 673,1105" style="stroke: black; stroke-width: 1" />
    <path d="M825,1984 C825,1999 1309,1999 1309,1999" style="stroke: #0261CD; stroke-width: 1" />
    <text class="taxon_text" style="font-family: Verdana; font-size: 11; font-style: Italic" transform="rotate( 1309.9999934118 1999.04761904762)" x="1319" y="2003">Erynnis tages</text>
    <path d="M825,1984 C825,1970 1134,1970 1134,1970" style="stroke: #0261CD; stroke-width: 1" />
    <polygon class="collapsed" id="collapsed650" points="1134,1970 1309,1977 1309,1963 1134,1970 " style="fill: white; stroke: #0261CD; stroke-width: 1" />
    <text class="collapsed_text" id="collapsed_text650" style="font-family: Verdana; font-size: 11; font-weight: bold" transform="rotate()" x="1319" y="1974">Pyrgus (n=12)</text>
    <path d="M992,2042 C992,2056 1309,2056 1309,2056" style="stroke: #0261CD; stroke-width: 1" />
    <text class="taxon_text" style="font-family: Verdana; font-size: 11; font-style: Italic" transform="rotate( 1309.9999934118 2056.66666666667)" x="1319" y="2060">Gegenes nostrodamus</text>
    <path d="M992,2042 C992,2027 1107,2027 1107,2027" style="stroke: #0261CD; stroke-width: 1" />
    <polygon class="collapsed" id="collapsed677" points="1107,2027 1309,2035 1309,2020 1107,2027 " style="fill: white; stroke: #0261CD; stroke-width: 1" />
    <text class="collapsed_text" id="collapsed_text677" style="font-family: Verdana; font-size: 11; font-weight: bold" transform="rotate()" x="1319" y="2031">Thymelicus (n=3)</text>
    <path d="M1069,2099 C1069,2114 1309,2114 1309,2114" style="stroke: #0261CD; stroke-width: 1" />
    <text class="taxon_text" style="font-family: Verdana; font-size: 11; font-style: Italic" transform="rotate( 1309.9999934118 2114.28571428571)" x="1319" y="2118">Hesperia comma</text>
    <path d="M1069,2099 C1069,2085 1309,2085 1309,2085" style="stroke: #0261CD; stroke-width: 1" />
    <text class="taxon_text" style="font-family: Verdana; font-size: 11; font-style: Italic" transform="rotate( 1309.9999934118 2085.47619047619)" x="1319" y="2089">Ochlodes sylvanus</text>
    <path d="M959,2071 C959,2099 1069,2099 1069,2099" style="stroke: #0261CD; stroke-width: 1" />
    <path d="M959,2071 C959,2042 992,2042 992,2042" style="stroke: #0261CD; stroke-width: 1" />
    <path d="M874,2107 C874,2143 1309,2143 1309,2143" style="stroke: #0261CD; stroke-width: 1" />
    <text class="taxon_text" style="font-family: Verdana; font-size: 11; font-style: Italic" transform="rotate( 1309.9999934118 2143.09523809524)" x="1319" y="2147">Carterocephalus palaemon</text>
    <path d="M874,2107 C874,2071 959,2071 959,2071" style="stroke: #0261CD; stroke-width: 1" />
    <path d="M838,2139 C838,2171 1309,2171 1309,2171" style="stroke: #0261CD; stroke-width: 1" />
    <text class="taxon_text" style="font-family: Verdana; font-size: 11; font-style: Italic" transform="rotate( 1309.9999934118 2171.90476190476)" x="1319" y="2175">Heteropterus morpheus</text>
    <path d="M838,2139 C838,2107 874,2107 874,2107" style="stroke: #0261CD; stroke-width: 1" />
    <path d="M788,2062 C788,2139 838,2139 838,2139" style="stroke: #0261CD; stroke-width: 1" />
    <path d="M788,2062 C788,1984 825,1984 825,1984" style="stroke: #0261CD; stroke-width: 1" />
    <path d="M1097,2215 C1097,2229 1175,2229 1175,2229" style="stroke: #0261CD; stroke-width: 1" />
    <polygon class="collapsed" id="collapsed641" points="1175,2229 1309,2236 1309,2222 1175,2229 " style="fill: white; stroke: #0261CD; stroke-width: 1" />
    <text class="collapsed_text" id="collapsed_text641" style="font-family: Verdana; font-size: 11; font-weight: bold" transform="rotate()" x="1319" y="2233">Carcharodus (n=2)</text>
    <path d="M1097,2215 C1097,2200 1127,2200 1127,2200" style="stroke: #0261CD; stroke-width: 1" />
    <polygon class="collapsed" id="collapsed638" points="1127,2200 1309,2207 1309,2193 1127,2200 " style="fill: white; stroke: #0261CD; stroke-width: 1" />
    <text class="collapsed_text" id="collapsed_text638" style="font-family: Verdana; font-size: 11; font-weight: bold" transform="rotate()" x="1319" y="2204">Muschampia (n=2)</text>
    <path d="M1043,2236 C1043,2258 1309,2258 1309,2258" style="stroke: #0261CD; stroke-width: 1" />
    <text class="taxon_text" style="font-family: Verdana; font-size: 11; font-style: Italic" transform="rotate( 1309.9999934118 2258.33333333333)" x="1319" y="2262">Carcharodus alceae</text>
    <path d="M1043,2236 C1043,2215 1097,2215 1097,2215" style="stroke: #0261CD; stroke-width: 1" />
    <path d="M922,2261 C922,2287 1206,2287 1206,2287" style="stroke: #0261CD; stroke-width: 1" />
    <polygon class="collapsed" id="collapsed645" points="1206,2287 1309,2294 1309,2279 1206,2287 " style="fill: white; stroke: #0261CD; stroke-width: 1" />
    <text class="collapsed_text" id="collapsed_text645" style="font-family: Verdana; font-size: 11; font-weight: bold" transform="rotate()" x="1319" y="2291">Spialia (n=2)</text>
    <path d="M922,2261 C922,2236 1043,2236 1043,2236" style="stroke: #0261CD; stroke-width: 1" />
    <path d="M724,2162 C724,2261 922,2261 922,2261" style="stroke: #0261CD; stroke-width: 1" />
    <path d="M724,2162 C724,2062 788,2062 788,2062" style="stroke: #0261CD; stroke-width: 1" />
    <path d="M645,1820 C645,2162 724,2162 724,2162" style="stroke: black; stroke-width: 1" />
    <path d="M645,1820 C645,1478 660,1478 660,1478" style="stroke: black; stroke-width: 1" />
    <path d="M904,2359 C904,2373 1309,2373 1309,2373" style="stroke: #9400D3; stroke-width: 1" />
    <text class="taxon_text" style="font-family: Verdana; font-size: 11; font-style: Italic" transform="rotate( 1309.9999934118 2373.57142857143)" x="1319" y="2377">Papilio machaon</text>
    <path d="M904,2359 C904,2344 1309,2344 1309,2344" style="stroke: #9400D3; stroke-width: 1" />
    <text class="taxon_text" style="font-family: Verdana; font-size: 11; font-style: Italic" transform="rotate( 1309.9999934118 2344.7619047619)" x="1319" y="2348">Zerynthia polyxena</text>
    <path d="M750,2337 C750,2359 904,2359 904,2359" style="stroke: #9400D3; stroke-width: 1" />
    <path d="M750,2337 C750,2315 1084,2315 1084,2315" style="stroke: #9400D3; stroke-width: 1" />
    <polygon class="collapsed" id="collapsed689" points="1084,2315 1309,2323 1309,2308 1084,2315 " style="fill: white; stroke: #9400D3; stroke-width: 1" />
    <text class="collapsed_text" id="collapsed_text689" style="font-family: Verdana; font-size: 11; font-weight: bold" transform="rotate()" x="1319" y="2319">Parnassius (n=3)</text>
    <path d="M629,2369 C629,2402 1309,2402 1309,2402" style="stroke: #9400D3; stroke-width: 1" />
    <text class="taxon_text" style="font-family: Verdana; font-size: 11; font-style: Italic" transform="rotate( 1309.9999934118 2402.38095238095)" x="1319" y="2406">Iphiclides podalirius</text>
    <path d="M629,2369 C629,2337 750,2337 750,2337" style="stroke: #9400D3; stroke-width: 1" />
    <path d="M611,2095 C611,2369 629,2369 629,2369" style="stroke: black; stroke-width: 1" />
    <path d="M611,2095 C611,1820 645,1820 645,1820" style="stroke: black; stroke-width: 1" />
    <path d="M40,2263 C40,2431 1309,2431 1309,2431" style="stroke: black; stroke-width: 1" />
    <text class="taxon_text" style="font-family: Verdana; font-size: 11; font-style: Italic" transform="rotate( 1309.99998682359 2431.19047619048)" x="1319" y="2435">Hamearis lucina</text>
    <path d="M40,2263 C40,2095 611,2095 611,2095" style="stroke: black; stroke-width: 1" />
</svg>